<svg aria-hidden="true" style="position: absolute; width: 0; height: 0; overflow: hidden;" version="1.1" xmlns="http://www.w3.org/2000/svg" xmlns:xlink="http://www.w3.org/1999/xlink">
    <defs>
        <symbol id="icon-burger-menu" viewBox="0 0 32 32">
            <path d="M13.826 5.662c-5.67 0.312-13.822 1.022-13.826 9.726v10.951h12.653v-11.717h-4.202c-0.266-3.129 3.021-3.937 6.595-4.557l-1.221-4.403zM30.779 5.662c-5.671 0.312-13.822 1.022-13.826 9.726v10.951h12.654v-11.717h-4.202c-0.266-3.129 3.021-3.937 6.595-4.557l-1.221-4.403z"></path>
        </symbol>
        <symbol id="icon-button-fag-bootom" viewBox="0 0 32 32">
            <path d="M4 6.667h24c0.243 0.001 0.481 0.068 0.689 0.194s0.377 0.306 0.49 0.522c0.113 0.215 0.165 0.457 0.15 0.7s-0.095 0.477-0.232 0.677l-12 17.333c-0.497 0.719-1.695 0.719-2.193 0l-12-17.333c-0.139-0.2-0.22-0.434-0.236-0.677s0.037-0.485 0.15-0.701c0.113-0.216 0.283-0.396 0.491-0.522s0.447-0.192 0.691-0.192z"></path>
        </symbol>
        <symbol id="icon-button-fag-top" viewBox="0 0 32 32">
            <path d="M4 25.333h24c0.243-0.001 0.481-0.068 0.689-0.194s0.377-0.306 0.49-0.521c0.113-0.215 0.165-0.457 0.15-0.7s-0.095-0.477-0.232-0.677l-12-17.333c-0.497-0.719-1.695-0.719-2.193 0l-12 17.333c-0.139 0.2-0.22 0.434-0.236 0.677s0.037 0.485 0.15 0.701 0.283 0.396 0.491 0.522c0.208 0.126 0.447 0.192 0.691 0.192z"></path>
        </symbol>
        <symbol id="icon-go-home-left" viewBox="0 0 32 32">
            <path stroke-linejoin="round" stroke-linecap="round" stroke-miterlimit="4" stroke-width="2.6667" d="M20 6.667l-8 9.333 8 9.333"></path>
        </symbol>
        <symbol id="icon-puzzle-gallery-left" viewBox="0 0 32 32">
            <path d="M25.333 28v-24c-0.001-0.243-0.068-0.481-0.194-0.689s-0.306-0.377-0.521-0.49c-0.215-0.113-0.457-0.165-0.7-0.151s-0.477 0.095-0.677 0.232l-17.333 12c-0.719 0.497-0.719 1.695 0 2.193l17.333 12c0.2 0.139 0.434 0.22 0.677 0.235s0.485-0.037 0.701-0.149 0.396-0.283 0.522-0.491c0.126-0.208 0.192-0.447 0.192-0.691z"></path>
        </symbol>
        <symbol id="icon-puzzle-gallery-right" viewBox="0 0 32 32">
            <path d="M6.667 28v-24c0.001-0.243 0.068-0.481 0.194-0.689s0.306-0.377 0.522-0.49c0.215-0.113 0.457-0.165 0.7-0.151s0.477 0.095 0.677 0.232l17.333 12c0.719 0.497 0.719 1.695 0 2.193l-17.333 12c-0.2 0.139-0.434 0.22-0.677 0.235s-0.485-0.037-0.701-0.149-0.396-0.283-0.522-0.491c-0.126-0.208-0.192-0.447-0.192-0.691z"></path>
        </symbol>
        <symbol id="icon-who-brain" viewBox="0 0 32 32">
            <path d="M9.334 8c0.001 0.317 0.052 0.615 0.153 0.893 0.074 0.207 0.095 0.43 0.062 0.647s-0.12 0.423-0.252 0.599c-0.132 0.176-0.306 0.317-0.505 0.409s-0.419 0.134-0.638 0.122l-0.153-0.004c-0.515 0-1.018 0.149-1.45 0.429s-0.774 0.679-0.984 1.149c-0.21 0.47-0.28 0.991-0.201 1.499s0.304 0.983 0.647 1.367c0.219 0.245 0.34 0.561 0.34 0.889s-0.121 0.645-0.34 0.889c-0.295 0.33-0.504 0.728-0.606 1.159s-0.097 0.88 0.018 1.308 0.333 0.82 0.637 1.142c0.304 0.322 0.683 0.563 1.104 0.702 0.307 0.101 0.567 0.31 0.731 0.589s0.222 0.607 0.162 0.925c-0.072 0.432-0.059 0.874 0.040 1.3s0.28 0.829 0.535 1.186c0.254 0.356 0.576 0.659 0.948 0.891s0.785 0.388 1.216 0.461c0.432 0.072 0.874 0.059 1.3-0.040s0.829-0.28 1.186-0.535c0.356-0.254 0.659-0.576 0.891-0.948s0.388-0.785 0.461-1.216c0.008-0.056 0.019-0.111 0.033-0.164v-15.648c0-0.707-0.281-1.386-0.781-1.886s-1.178-0.781-1.886-0.781-1.386 0.281-1.886 0.781c-0.5 0.5-0.781 1.178-0.781 1.886zM17.334 23.648c0.014 0.053 0.025 0.108 0.033 0.163 0.072 0.432 0.228 0.845 0.46 1.217s0.535 0.693 0.891 0.948c0.356 0.254 0.759 0.436 1.186 0.535s0.868 0.112 1.3 0.040c0.432-0.072 0.845-0.228 1.217-0.46s0.693-0.534 0.948-0.891 0.436-0.759 0.535-1.186c0.099-0.426 0.112-0.868 0.040-1.3-0.060-0.318-0.002-0.646 0.162-0.925s0.424-0.488 0.731-0.589c0.421-0.139 0.8-0.38 1.104-0.702s0.523-0.715 0.637-1.142c0.114-0.428 0.12-0.877 0.017-1.308s-0.311-0.829-0.607-1.159c-0.219-0.245-0.34-0.561-0.34-0.889s0.121-0.645 0.34-0.889c0.352-0.393 0.579-0.883 0.653-1.406s-0.009-1.056-0.239-1.531-0.595-0.872-1.050-1.14c-0.455-0.268-0.98-0.394-1.507-0.363-0.219 0.012-0.439-0.030-0.638-0.122s-0.373-0.233-0.504-0.409c-0.132-0.176-0.218-0.382-0.251-0.599s-0.012-0.44 0.062-0.647c0.1-0.278 0.152-0.576 0.153-0.893 0-0.707-0.281-1.386-0.781-1.886s-1.178-0.781-1.886-0.781-1.385 0.281-1.886 0.781c-0.5 0.5-0.781 1.178-0.781 1.886v15.648zM12 2.667c0.757-0 1.505 0.161 2.194 0.472s1.305 0.766 1.806 1.333c0.726-0.823 1.688-1.402 2.755-1.658s2.188-0.177 3.208 0.227 1.891 1.113 2.494 2.030c0.603 0.917 0.908 1.998 0.873 3.095 0.797 0.205 1.535 0.592 2.157 1.13s1.112 1.212 1.43 1.971c0.318 0.758 0.457 1.58 0.406 2.401s-0.292 1.619-0.703 2.331c0.351 0.607 0.579 1.276 0.67 1.971s0.045 1.401-0.136 2.077c-0.181 0.677-0.495 1.311-0.921 1.867s-0.959 1.022-1.566 1.371v0.047c-0 1.241-0.385 2.451-1.101 3.464s-1.729 1.779-2.899 2.193-2.439 0.454-3.633 0.117c-1.194-0.338-2.254-1.037-3.034-2.002-0.78 0.965-1.84 1.665-3.034 2.002s-2.463 0.297-3.633-0.117-2.183-1.179-2.899-2.193c-0.716-1.013-1.101-2.223-1.101-3.464v-0.047c-0.607-0.35-1.139-0.816-1.566-1.371s-0.74-1.19-0.921-1.867-0.228-1.383-0.136-2.077c0.092-0.695 0.32-1.364 0.67-1.971-0.411-0.712-0.651-1.51-0.703-2.331s0.087-1.642 0.406-2.401 0.808-1.433 1.43-1.97c0.622-0.538 1.36-0.925 2.156-1.13l-0.003-0.168c0-1.414 0.562-2.771 1.562-3.771s2.357-1.562 3.771-1.562z"></path>
        </symbol>
        <symbol id="icon-who-globus" viewBox="0 0 32 32">
            <path stroke-linejoin="round" stroke-linecap="round" stroke-miterlimit="4" stroke-width="2" d="M16.667 25.333v4M14 29.333h5.333"></path>
            <path stroke-linejoin="round" stroke-linecap="round" stroke-miterlimit="4" stroke-width="2" d="M18 21.333c-5.155 0-9.333-4.179-9.333-9.333s4.179-9.333 9.333-9.333c5.155 0 9.333 4.179 9.333 9.333s-4.179 9.333-9.333 9.333z"></path>
            <path stroke-linejoin="round" stroke-linecap="round" stroke-miterlimit="4" stroke-width="2" d="M11.333 5.333c0.872 0.051 1.323 0.479 2.097 1.297 1.4 1.48 2.8 1.603 3.733 1.109 1.399-0.74 0.223-1.937 1.865-2.587 1.071-0.427 1.22-1.58 0.624-2.487M26.667 13.333c-2 0-2.355 1.663-4 1.333-3.333-0.667-4.277 0.079-4.277 1.668s0 1.589-0.693 2.781c-0.451 0.776-0.609 1.551 0.289 2.217"></path>
            <path stroke-linejoin="round" stroke-linecap="round" stroke-miterlimit="4" stroke-width="2" d="M8.667 2.667c-1.266 1.225-2.273 2.693-2.96 4.315s-1.041 3.367-1.040 5.129c0 7.303 5.969 13.223 13.333 13.223 3.486 0.008 6.836-1.349 9.333-3.78"></path>
        </symbol>
        <symbol id="icon-who-meditation" viewBox="0 0 32 32">
            <path d="M16 3.667c-0.306 0-0.61 0.060-0.893 0.178s-0.54 0.289-0.757 0.506-0.389 0.474-0.506 0.757c-0.117 0.283-0.178 0.587-0.178 0.893s0.060 0.61 0.178 0.893c0.117 0.283 0.289 0.54 0.506 0.757s0.474 0.389 0.757 0.506c0.283 0.117 0.587 0.178 0.893 0.178 0.619 0 1.212-0.246 1.65-0.683s0.683-1.031 0.683-1.65c0-0.619-0.246-1.212-0.683-1.65s-1.031-0.683-1.65-0.683zM11.667 6c0-1.149 0.457-2.251 1.269-3.064s1.915-1.269 3.064-1.269c1.149 0 2.251 0.457 3.064 1.269s1.269 1.915 1.269 3.064c0 1.149-0.457 2.251-1.269 3.064s-1.915 1.269-3.064 1.269c-1.149 0-2.251-0.457-3.064-1.269s-1.269-1.915-1.269-3.064zM16 13.027c-0.383-0.004-0.767 0.019-1.147 0.069l-1.189 0.2c-2.684 0.452-4.664 2.803-4.664 5.571 0.001 0.709-0.173 1.408-0.505 2.035s-0.814 1.162-1.402 1.56l-0.133 0.092c-0.34 0.229-0.709 0.411-1.097 0.541l-1.543 0.52c-0.251 0.085-0.526 0.066-0.764-0.051s-0.419-0.325-0.504-0.577-0.066-0.526 0.051-0.764c0.118-0.238 0.325-0.419 0.577-0.504l1.545-0.52c0.219-0.074 0.424-0.175 0.616-0.304l0.136-0.092c0.316-0.214 0.574-0.503 0.753-0.841s0.271-0.714 0.27-1.095c0-3.729 2.671-6.927 6.331-7.543l1.187-0.2c0.491-0.071 0.987-0.103 1.483-0.096 0.496-0.007 0.992 0.025 1.483 0.096l1.187 0.2c3.661 0.616 6.331 3.813 6.331 7.543 0 0.781 0.387 1.507 1.024 1.936l0.135 0.092c0.193 0.129 0.399 0.23 0.617 0.304l1.544 0.52c0.251 0.085 0.459 0.266 0.577 0.504s0.136 0.513 0.051 0.764c-0.085 0.251-0.266 0.459-0.504 0.577s-0.513 0.136-0.764 0.051l-1.543-0.52c-0.388-0.13-0.757-0.312-1.096-0.541l-0.135-0.092c-0.588-0.397-1.069-0.933-1.401-1.56s-0.506-1.326-0.505-2.035c0-2.768-1.98-5.119-4.663-5.571l-1.189-0.2c-0.38-0.050-0.763-0.073-1.147-0.068zM11.868 20.735c0.079-0.105 0.178-0.194 0.29-0.261s0.238-0.111 0.368-0.129c0.13-0.019 0.262-0.011 0.39 0.021s0.247 0.090 0.352 0.169c0.105 0.079 0.194 0.177 0.261 0.291s0.111 0.238 0.129 0.368 0.011 0.262-0.021 0.39c-0.033 0.127-0.090 0.247-0.169 0.352l-1.261 1.683c-0.141 0.195-0.292 0.382-0.453 0.56-0.376 0.394-0.834 0.699-1.343 0.893-0.207 0.077-0.421 0.131-0.693 0.2l-0.047 0.011-2.392 0.599c-0.294 0.075-0.55 0.254-0.721 0.505s-0.245 0.555-0.208 0.856c0.037 0.301 0.183 0.578 0.409 0.78s0.519 0.313 0.822 0.315h0.912c2.061 0 4.067-0.668 5.716-1.905l2.524-1.896c0.105-0.079 0.225-0.136 0.352-0.169s0.26-0.040 0.39-0.021c0.13 0.019 0.255 0.063 0.368 0.129s0.212 0.155 0.291 0.261 0.136 0.225 0.169 0.352c0.033 0.127 0.040 0.26 0.021 0.39s-0.063 0.255-0.129 0.368c-0.067 0.113-0.155 0.212-0.261 0.291l-1.205 0.904 0.655 0.247c0.712 0.267 1.033 0.387 1.356 0.488 0.971 0.303 1.975 0.485 2.991 0.543 0.337 0.019 0.68 0.019 1.44 0.019h1.252c0.303-0.002 0.595-0.114 0.822-0.315s0.372-0.479 0.409-0.78c0.037-0.301-0.037-0.605-0.208-0.855s-0.427-0.43-0.721-0.505l-2.073-0.519c-0.635-0.159-1.135-0.283-1.581-0.541-0.134-0.078-0.263-0.163-0.387-0.256-0.411-0.312-0.72-0.724-1.111-1.248l-0.068-0.089-0.969-1.292c-0.079-0.105-0.136-0.225-0.169-0.352s-0.040-0.26-0.021-0.39c0.019-0.13 0.063-0.255 0.129-0.368s0.155-0.212 0.26-0.291 0.225-0.136 0.352-0.169c0.127-0.033 0.26-0.040 0.39-0.021s0.255 0.063 0.368 0.129c0.113 0.067 0.212 0.155 0.291 0.261l0.969 1.292c0.491 0.655 0.628 0.824 0.788 0.945 0.056 0.041 0.115 0.080 0.176 0.116 0.173 0.1 0.383 0.161 1.177 0.36l1.964 0.491c0.768 0.193 1.44 0.659 1.888 1.312s0.642 1.447 0.546 2.233c-0.097 0.786-0.477 1.51-1.071 2.035s-1.358 0.815-2.15 0.816h-1.284c-0.719 0-1.12 0-1.52-0.023-1.18-0.067-2.348-0.279-3.476-0.631-0.381-0.12-0.756-0.26-1.429-0.512l-1.909-0.716c-1.876 1.227-4.069 1.881-6.311 1.881h-0.912c-0.792-0.001-1.557-0.291-2.15-0.816s-0.974-1.249-1.070-2.035c-0.097-0.786 0.097-1.58 0.545-2.233s1.12-1.12 1.888-1.312l2.391-0.597c0.34-0.085 0.432-0.109 0.512-0.14 0.231-0.088 0.44-0.227 0.611-0.405 0.059-0.063 0.117-0.136 0.328-0.417l1.233-1.643z"></path>
        </symbol>
        <symbol id="icon-who-puzzle" viewBox="0 0 32 32">
            <path stroke-linejoin="round" stroke-linecap="round" stroke-miterlimit="4" stroke-width="2" d="M19 8.116c0-0.473 0.248-0.901 0.535-1.279 0.295-0.387 0.465-0.845 0.465-1.337 0-1.381-1.343-2.5-3-2.5s-3 1.12-3 2.5c0 0.492 0.171 0.951 0.465 1.337 0.287 0.377 0.535 0.805 0.535 1.279 0.001 0.114-0.022 0.228-0.066 0.333s-0.109 0.201-0.191 0.281c-0.082 0.080-0.179 0.143-0.285 0.184s-0.22 0.062-0.334 0.059c-1.855-0.053-3.707-0.186-5.551-0.4 0.249 2.151 0.389 4.332 0.42 6.543 0.001 0.116-0.021 0.231-0.064 0.338s-0.108 0.205-0.19 0.287-0.179 0.147-0.286 0.192c-0.107 0.044-0.222 0.067-0.338 0.067-0.473 0-0.901-0.248-1.279-0.535-0.382-0.298-0.852-0.462-1.337-0.465-1.381 0-2.5 1.343-2.5 3s1.12 3 2.5 3c0.492 0 0.951-0.171 1.337-0.465 0.377-0.287 0.805-0.535 1.279-0.535 0.413 0 0.74 0.347 0.709 0.76-0.166 2.261-0.451 4.511-0.856 6.741 2.025 0.254 4.076 0.412 6.155 0.472 0.114 0.003 0.228-0.017 0.334-0.059s0.203-0.105 0.285-0.185c0.082-0.080 0.146-0.175 0.191-0.281s0.066-0.219 0.066-0.333c0-0.473-0.248-0.901-0.535-1.279-0.298-0.382-0.462-0.852-0.465-1.337 0-1.38 1.344-2.5 3-2.5 1.657 0 3 1.12 3 2.5 0 0.492-0.171 0.951-0.465 1.337-0.287 0.377-0.533 0.805-0.533 1.279 0 0.444 0.369 0.799 0.813 0.773 2.426-0.142 4.842-0.423 7.236-0.84 0.362-2.082 0.621-4.181 0.776-6.289 0.007-0.097-0.006-0.195-0.038-0.288s-0.084-0.177-0.151-0.248c-0.067-0.071-0.148-0.128-0.238-0.167s-0.187-0.058-0.285-0.057c-0.473 0-0.901 0.248-1.279 0.535-0.387 0.295-0.845 0.465-1.337 0.465-1.38 0-2.5-1.343-2.5-3s1.12-3 2.5-3c0.493 0 0.951 0.171 1.337 0.465 0.377 0.287 0.805 0.535 1.28 0.535 0.116 0 0.231-0.022 0.338-0.067s0.204-0.11 0.286-0.192c0.082-0.082 0.146-0.18 0.19-0.287s0.065-0.222 0.064-0.338c-0.031-2.39-0.196-4.776-0.493-7.147-2.516 0.458-5.078 0.764-7.688 0.919-0.105 0.005-0.21-0.011-0.308-0.047s-0.189-0.093-0.265-0.165c-0.076-0.072-0.137-0.159-0.178-0.256s-0.063-0.199-0.062-0.304z"></path>
        </symbol>
        <symbol id="icon-who-user" viewBox="0 0 32 32">
            <path d="M16 8.333c-0.592-0.002-1.179 0.113-1.727 0.339s-1.046 0.556-1.466 0.974c-0.42 0.418-0.753 0.915-0.981 1.461s-0.345 1.133-0.346 1.726c0.001 0.592 0.119 1.179 0.346 1.726s0.561 1.043 0.981 1.461c0.42 0.418 0.918 0.749 1.466 0.974s1.135 0.34 1.727 0.339c0.592 0.002 1.179-0.113 1.727-0.339s1.046-0.556 1.466-0.974c0.42-0.418 0.753-0.915 0.981-1.461s0.345-1.133 0.346-1.726c-0.001-0.592-0.119-1.179-0.346-1.726s-0.561-1.043-0.981-1.461c-0.42-0.418-0.918-0.749-1.466-0.974s-1.135-0.34-1.727-0.339zM13.48 12.833c0-1.376 1.124-2.5 2.52-2.5s2.52 1.124 2.52 2.5c-0.001 0.33-0.067 0.656-0.194 0.96s-0.313 0.58-0.547 0.813c-0.234 0.232-0.512 0.416-0.817 0.541s-0.632 0.188-0.962 0.186c-0.33 0.002-0.657-0.062-0.962-0.186s-0.583-0.309-0.817-0.541-0.42-0.508-0.547-0.813c-0.127-0.304-0.193-0.63-0.194-0.96z"></path>
            <path d="M17.387 2.080c-0.902-0.305-1.879-0.304-2.78 0.001l-9.035 3.060c-0.664 0.221-1.249 0.632-1.683 1.182s-0.697 1.214-0.757 1.912c-0.471 5.88 0.32 10.501 2.451 14.124 2.137 3.633 5.545 6.131 10.047 7.905 0.236 0.093 0.498 0.093 0.733 0 4.505-1.775 7.915-4.272 10.053-7.905 2.133-3.623 2.923-8.245 2.453-14.123-0.061-0.698-0.324-1.362-0.758-1.912s-1.019-0.96-1.684-1.181l-9.041-3.063zM15.248 3.976c0.485-0.164 1.011-0.164 1.496 0l9.043 3.060c0.616 0.208 1.040 0.748 1.089 1.359 0.449 5.635-0.331 9.801-2.184 12.949l-0.096 0.163c-0.268-0.754-0.699-1.439-1.264-2.005-1.083-1.083-2.573-1.645-4.221-1.828l-0.5-0.056-0.34 0.364v0.003l-0.027 0.024c-0.024 0.026-0.064 0.063-0.121 0.112-0.155 0.135-0.321 0.257-0.495 0.367-0.436 0.273-1 0.513-1.628 0.513-0.627 0-1.192-0.24-1.627-0.513-0.221-0.139-0.429-0.299-0.619-0.479l-0.025-0.025-0.34-0.365-0.5 0.056c-1.648 0.183-3.139 0.745-4.221 1.827-0.562 0.564-0.983 1.234-1.264 2.008l-0.097-0.164c-1.853-3.147-2.632-7.315-2.183-12.949 0.029-0.308 0.148-0.601 0.341-0.843s0.454-0.421 0.748-0.517l9.035-3.059zM9.008 23.651c0.064-1.267 0.476-2.137 1.075-2.735 0.592-0.593 1.456-1.005 2.591-1.195 0.164 0.136 0.379 0.297 0.635 0.459 0.625 0.393 1.56 0.82 2.692 0.82s2.067-0.427 2.693-0.82c0.255-0.161 0.469-0.323 0.633-0.459 1.133 0.189 1.999 0.601 2.591 1.195 0.599 0.597 1.011 1.468 1.075 2.733-1.737 1.903-4.057 3.404-6.996 4.607-2.933-1.201-5.255-2.703-6.988-4.605z"></path>
        </symbol>
        <symbol id="icon-mingcute_menu-fill" viewBox="0 0 32 32">
            <path d="M26.667 23.333c0.514 0 1.007 0.198 1.379 0.553s0.593 0.838 0.618 1.351c0.025 0.513-0.149 1.016-0.485 1.404s-0.809 0.633-1.32 0.682l-0.192 0.009h-21.333c-0.514-0-1.007-0.198-1.379-0.553s-0.593-0.838-0.618-1.351c-0.025-0.513 0.149-1.016 0.485-1.404s0.809-0.633 1.32-0.682l0.192-0.009h21.333zM26.667 14c0.53 0 1.039 0.211 1.414 0.586s0.586 0.884 0.586 1.414-0.211 1.039-0.586 1.414c-0.375 0.375-0.884 0.586-1.414 0.586h-21.333c-0.53 0-1.039-0.211-1.414-0.586s-0.586-0.884-0.586-1.414 0.211-1.039 0.586-1.414c0.375-0.375 0.884-0.586 1.414-0.586h21.333zM26.667 4.667c0.53 0 1.039 0.211 1.414 0.586s0.586 0.884 0.586 1.414-0.211 1.039-0.586 1.414c-0.375 0.375-0.884 0.586-1.414 0.586h-21.333c-0.53 0-1.039-0.211-1.414-0.586s-0.586-0.884-0.586-1.414 0.211-1.039 0.586-1.414c0.375-0.375 0.884-0.586 1.414-0.586h21.333z"></path>
        </symbol>
        <symbol id="icon-ion_close-header" viewBox="0 0 32 32">
            <path d="M18.121 16l5.937-5.938c0.282-0.281 0.44-0.663 0.441-1.061s-0.157-0.78-0.439-1.062c-0.281-0.282-0.663-0.44-1.061-0.441s-0.78 0.157-1.062 0.439l-5.937 5.938-5.938-5.938c-0.282-0.282-0.664-0.44-1.062-0.44s-0.781 0.158-1.063 0.44c-0.282 0.282-0.44 0.664-0.44 1.063s0.158 0.781 0.44 1.062l5.938 5.938-5.938 5.937c-0.282 0.282-0.44 0.664-0.44 1.063s0.158 0.781 0.44 1.062c0.282 0.282 0.664 0.44 1.063 0.44s0.781-0.158 1.062-0.44l5.938-5.937 5.937 5.937c0.282 0.282 0.664 0.44 1.063 0.44s0.781-0.158 1.062-0.44c0.282-0.282 0.44-0.664 0.44-1.062s-0.158-0.781-0.44-1.063l-5.941-5.937z"></path>
        </symbol>
        <symbol id="icon-VectorD" viewBox="0 0 50 32">
            <path d="M21.397 0c-8.776 0.483-21.39 1.581-21.397 15.052v16.948h19.583v-18.133h-6.502c-0.412-4.842 4.675-6.092 10.207-7.052l-1.89-6.815zM47.634 0c-8.776 0.483-21.39 1.581-21.397 15.052v16.948h19.583v-18.133h-6.502c-0.412-4.842 4.675-6.092 10.207-7.052l-1.89-6.815z"></path>
        </symbol>
        <symbol id="icon-Vecto-left" viewBox="0 0 36 32">
            <path d="M35.879 15.515c0-0.772-0.307-1.511-0.852-2.057s-1.286-0.852-2.057-0.852h-23.040l7.641-7.641c0.514-0.551 0.794-1.281 0.78-2.034s-0.319-1.473-0.852-2.006c-0.533-0.533-1.252-0.838-2.006-0.852s-1.483 0.266-2.035 0.78l-12.606 12.606c-0.545 0.545-0.851 1.285-0.851 2.056s0.306 1.51 0.851 2.056l12.606 12.606c0.266 0.286 0.587 0.515 0.944 0.674s0.742 0.244 1.133 0.251c0.391 0.007 0.779-0.065 1.141-0.211s0.691-0.364 0.968-0.64c0.276-0.276 0.494-0.605 0.64-0.967s0.218-0.75 0.211-1.141-0.092-0.776-0.251-1.133c-0.159-0.357-0.388-0.678-0.674-0.944l-7.641-7.641h23.040c0.772 0 1.511-0.307 2.057-0.852s0.852-1.286 0.852-2.057z"></path>
        </symbol>
        <symbol id="icon-vecto-right" viewBox="0 0 36 32">
            <path d="M0 15.515c0-0.772 0.306-1.511 0.852-2.057s1.286-0.852 2.057-0.852h23.040l-7.641-7.641c-0.514-0.551-0.794-1.281-0.78-2.034s0.319-1.473 0.852-2.006c0.533-0.533 1.252-0.838 2.006-0.852s1.483 0.266 2.035 0.78l12.606 12.606c0.545 0.545 0.851 1.285 0.851 2.056s-0.306 1.51-0.851 2.056l-12.606 12.606c-0.266 0.286-0.587 0.515-0.944 0.674s-0.742 0.244-1.133 0.251c-0.391 0.007-0.779-0.065-1.141-0.211s-0.691-0.364-0.968-0.64c-0.276-0.276-0.494-0.605-0.64-0.967s-0.218-0.75-0.211-1.141 0.092-0.776 0.251-1.133c0.159-0.357 0.388-0.678 0.674-0.944l7.641-7.641h-23.040c-0.772 0-1.511-0.307-2.057-0.852s-0.852-1.286-0.852-2.057z"></path>
        </symbol>
        <symbol id="icon-Group" viewBox="0 0 32 32">
            <path d="M14.321 0.937c0.171-0.285 0.416-0.521 0.711-0.686s0.629-0.251 0.969-0.251c0.34 0 0.674 0.086 0.969 0.251s0.54 0.401 0.711 0.686l4.347 7.24 8.442 1.775c0.332 0.070 0.639 0.223 0.891 0.444s0.44 0.503 0.545 0.816 0.123 0.648 0.053 0.971c-0.070 0.323-0.226 0.622-0.452 0.868l-5.754 6.249 0.871 8.338c0.035 0.328-0.021 0.659-0.159 0.961s-0.357 0.562-0.632 0.756c-0.275 0.194-0.598 0.314-0.936 0.349s-0.68-0.016-0.991-0.15l-7.904-3.38-7.904 3.38c-0.311 0.133-0.653 0.185-0.991 0.15s-0.661-0.156-0.936-0.349c-0.275-0.194-0.493-0.455-0.632-0.756s-0.194-0.632-0.16-0.961l0.871-8.337-5.754-6.247c-0.227-0.246-0.383-0.545-0.453-0.868s-0.052-0.658 0.053-0.972c0.105-0.314 0.293-0.595 0.545-0.817s0.56-0.375 0.892-0.444l8.442-1.775 4.347-7.24z"></path>
        </symbol>
    </defs>
</svg>